<svg width="889" height="960" viewBox="0 0 889 960" fill="none" xmlns="http://www.w3.org/2000/svg">
<g opacity="0.2" clip-path="url(#clip0_94_261)">
<mask id="mask0_94_261" style="mask-type:alpha" maskUnits="userSpaceOnUse" x="0" y="-1" width="1462" height="961">
<path d="M584.625 262.811L783.154 262.811L783.154 480.378L584.625 480.378L584.625 262.811Z" fill="#F9E050"/>
<path d="M292.261 800.774L490.79 800.774L490.79 959.89L292.261 959.89L292.261 800.774Z" fill="#F4F464"/>
<path d="M438.442 640.577L636.971 640.577L636.971 858.144L438.442 858.144L438.442 640.577ZM-1.34973e-06 640.577L146.18 640.577L146.18 800.775L-3.55898e-07 800.775L-1.34973e-06 640.577ZM292.262 480.595L438.442 480.595L438.442 640.794L292.262 640.794L292.262 480.595Z" fill="#F4F464"/>
<path d="M584.625 103.044L783.153 103.044L783.153 320.611L584.625 320.611L584.625 103.044Z" fill="#F9B038"/>
<path d="M532.371 -0.000549589L783.05 -0.000551457L783.05 160.198L532.371 160.198L532.371 -0.000549589Z" fill="#F6842D"/>
<path d="M146.182 -0.000368925L292.363 -0.000370014L292.363 160.198L146.182 160.198L146.182 -0.000368925Z" fill="#F9E050"/>
<path d="M584.624 743.405L783.153 743.405L783.153 959.889L584.624 959.889L584.624 743.405Z" fill="#F6842D"/>
<path d="M292.26 160.305L438.44 160.305L438.44 320.503L292.26 320.503L292.26 160.305Z" fill="#F4F464"/>
<path d="M729.913 583.207L928.442 583.207L928.442 800.774L729.913 800.774L729.913 583.207Z" fill="#F4AC2B"/>
<path d="M729.912 423.336L928.441 423.336L928.441 640.903L729.912 640.903L729.912 423.336Z" fill="#F6842D"/>
<path d="M729.912 262.811L928.441 262.811L928.441 480.378L729.912 480.378L729.912 262.811Z" fill="#F4AC2B"/>
<path d="M729.913 103.045L928.442 103.045L928.442 320.612L729.913 320.612L729.913 103.045Z" fill="#F6842D"/>
<path d="M730.9 959.891L730.9 800.775L876.092 800.775L876.092 160.198L729.912 160.198L729.912 -2.26349e-05L1121.73 -2.53452e-05C1180.6 -2.57524e-05 1231.57 7.36053 1274.43 22.1897C1317.3 36.8024 1352.46 62.564 1380.12 99.3663C1407.77 136.169 1428.52 185.96 1441.95 248.74C1455.38 311.304 1462 390.862 1462 487.631C1462 585.265 1455.78 664.498 1443.23 725.114C1430.59 786.812 1410.84 834.763 1383.97 868.86C1357.34 904.205 1321.11 929.31 1280.56 940.516C1238.58 953.505 1187.71 960 1128.15 960L875.994 960L730.9 959.891ZM1028.5 828.594L1123.02 828.594C1155.61 828.594 1183.86 824.48 1207.37 816.254C1231.93 808.679 1252.76 790.785 1265.35 766.463C1280.56 741.567 1291.42 706.605 1298.14 661.468C1305.74 616.331 1309.5 556.473 1309.5 481.786C1309.5 407.315 1305.55 347.024 1298.04 301.021C1291.42 255.884 1280.56 220.489 1265.45 194.728C1251.48 170.939 1230.6 153.013 1206.18 143.854C1182.48 135.519 1154.82 131.406 1122.92 131.406L1028.5 131.406L1028.5 828.594Z" fill="#F14D34"/>
<path d="M584.624 640.575L730.804 640.575L730.804 800.774L584.624 800.774L584.624 640.575Z" fill="#F9E050"/>
<path d="M438.442 0.00023929L584.622 0.000238201L584.622 160.199L438.442 160.199L438.442 0.00023929Z" fill="#F9B038"/>
<path d="M438.442 800.773L584.623 800.773L584.623 959.889L438.442 959.889L438.442 800.773Z" fill="#F9E050"/>
</mask>
<g mask="url(#mask0_94_261)">
<g filter="url(#filter0_d_94_261)">
<path d="M584.625 262.811L783.154 262.811L783.154 480.378L584.625 480.378L584.625 262.811Z" fill="#F9E050"/>
<path d="M292.261 800.774L490.79 800.774L490.79 959.89L292.261 959.89L292.261 800.774Z" fill="#F4F464"/>
<path d="M438.442 640.577L636.971 640.577L636.971 858.144L438.442 858.144L438.442 640.577ZM-1.34973e-06 640.577L146.18 640.577L146.18 800.775L-3.55898e-07 800.775L-1.34973e-06 640.577ZM292.262 480.595L438.442 480.595L438.442 640.794L292.262 640.794L292.262 480.595Z" fill="#F4F464"/>
<path d="M584.625 103.044L783.153 103.044L783.153 320.611L584.625 320.611L584.625 103.044Z" fill="#F9B038"/>
<path d="M532.371 -0.000549589L783.05 -0.000551457L783.05 160.198L532.371 160.198L532.371 -0.000549589Z" fill="#F6842D"/>
<path d="M146.182 -0.000368925L292.363 -0.000370014L292.363 160.198L146.182 160.198L146.182 -0.000368925Z" fill="#F9E050"/>
<path d="M584.624 743.405L783.153 743.405L783.153 959.889L584.624 959.889L584.624 743.405Z" fill="#F6842D"/>
<path d="M292.26 160.305L438.44 160.305L438.44 320.503L292.26 320.503L292.26 160.305Z" fill="#F4F464"/>
<path d="M729.913 583.207L928.442 583.207L928.442 800.774L729.913 800.774L729.913 583.207Z" fill="#F4AC2B"/>
<path d="M729.912 423.336L928.441 423.336L928.441 640.903L729.912 640.903L729.912 423.336Z" fill="#F6842D"/>
<path d="M729.912 262.811L928.441 262.811L928.441 480.378L729.912 480.378L729.912 262.811Z" fill="#F4AC2B"/>
<path d="M729.913 103.045L928.442 103.045L928.442 320.612L729.913 320.612L729.913 103.045Z" fill="#F6842D"/>
<path d="M730.9 959.891L730.9 800.775L876.092 800.775L876.092 160.198L729.912 160.198L729.912 -2.26349e-05L1121.73 -2.53452e-05C1180.6 -2.57524e-05 1231.57 7.36053 1274.43 22.1897C1317.3 36.8024 1352.46 62.564 1380.12 99.3663C1407.77 136.169 1428.52 185.96 1441.95 248.74C1455.38 311.304 1462 390.862 1462 487.631C1462 585.265 1455.78 664.498 1443.23 725.114C1430.59 786.812 1410.84 834.763 1383.97 868.86C1357.34 904.205 1321.11 929.31 1280.56 940.516C1238.58 953.505 1187.71 960 1128.15 960L875.994 960L730.9 959.891ZM1028.5 828.594L1123.02 828.594C1155.61 828.594 1183.86 824.48 1207.37 816.254C1231.93 808.679 1252.76 790.785 1265.35 766.463C1280.56 741.567 1291.42 706.605 1298.14 661.468C1305.74 616.331 1309.5 556.473 1309.5 481.786C1309.5 407.315 1305.55 347.024 1298.04 301.021C1291.42 255.884 1280.56 220.489 1265.45 194.728C1251.48 170.939 1230.6 153.013 1206.18 143.854C1182.48 135.519 1154.82 131.406 1122.92 131.406L1028.5 131.406L1028.5 828.594Z" fill="#F14D34"/>
<path d="M584.624 640.575L730.804 640.575L730.804 800.774L584.624 800.774L584.624 640.575Z" fill="#F9E050"/>
<path d="M438.442 0.00023929L584.622 0.000238201L584.622 160.199L438.442 160.199L438.442 0.00023929Z" fill="#F9B038"/>
<path d="M438.442 800.773L584.623 800.773L584.623 959.889L438.442 959.889L438.442 800.773Z" fill="#F9E050"/>
</g>
<rect width="318.278" height="190.967" transform="matrix(1 0 0 -1 0 960)" fill="url(#paint0_linear_94_261)"/>
</g>
</g>
<defs>
<filter id="filter0_d_94_261" x="-22.1411" y="-0.000488281" width="1506.28" height="1039.34" filterUnits="userSpaceOnUse" color-interpolation-filters="sRGB">
<feFlood flood-opacity="0" result="BackgroundImageFix"/>
<feColorMatrix in="SourceAlpha" type="matrix" values="0 0 0 0 0 0 0 0 0 0 0 0 0 0 0 0 0 0 127 0" result="hardAlpha"/>
<feOffset dy="57.1978"/>
<feGaussianBlur stdDeviation="11.0705"/>
<feColorMatrix type="matrix" values="0 0 0 0 0 0 0 0 0 0.0495833 0 0 0 0 0.145833 0 0 0 0.25 0"/>
<feBlend mode="normal" in2="BackgroundImageFix" result="effect1_dropShadow_94_261"/>
<feBlend mode="normal" in="SourceGraphic" in2="effect1_dropShadow_94_261" result="shape"/>
</filter>
<linearGradient id="paint0_linear_94_261" x1="135.153" y1="-91.7933" x2="208.957" y2="137.459" gradientUnits="userSpaceOnUse">
<stop stop-color="white"/>
<stop offset="1" stop-color="white" stop-opacity="0"/>
</linearGradient>
<clipPath id="clip0_94_261">
<rect width="1462" height="960" fill="white" transform="matrix(1 0 0 -1 0 960)"/>
</clipPath>
</defs>
</svg>
