<svg width="512" height="616" viewBox="0 0 512 616" fill="none" xmlns="http://www.w3.org/2000/svg">
<g opacity="0.04" clip-path="url(#clip0_94_620)">
<path d="M477.693 36.1353H269.11C250.173 36.1353 234.804 50.2869 234.804 67.7238V259.782C234.804 277.22 250.173 291.371 269.11 291.371H368.942C367.638 341.661 354.945 381.904 330.93 412.166C311.993 436.047 283.314 455.821 244.959 471.426C227.325 478.565 219.709 497.771 227.943 513.818L252.643 561.833C260.602 577.248 280.294 584.008 297.31 577.248C342.732 559.179 381.087 536.309 412.374 508.511C450.523 474.585 476.664 436.299 490.798 393.592C504.933 350.884 512 292.634 512 218.717V67.7238C512 50.2876 496.63 36.1353 477.693 36.1353Z" fill="#050C33"/>
<path d="M-84.2458 577.121C-39.3729 559.116 -1.22419 536.246 30.2691 508.511C68.7609 474.585 95.0397 436.426 109.174 394.034C123.308 351.642 130.375 293.203 130.375 218.717V67.7238C130.375 50.2869 115.006 36.1353 96.0682 36.1353H-112.515C-131.452 36.1353 -146.821 50.2869 -146.821 67.7238V259.782C-146.821 277.22 -131.452 291.371 -112.515 291.371H-12.6832C-13.9869 341.661 -26.6803 381.904 -50.6948 412.166C-69.6319 436.047 -98.3121 455.821 -136.667 471.426C-154.3 478.565 -161.916 497.771 -153.683 513.818L-129.051 561.707C-121.091 577.121 -101.262 583.945 -84.2458 577.121Z" fill="#050C33"/>
</g>
<defs>
<clipPath id="clip0_94_620">
<rect width="669" height="616" fill="white" transform="translate(-157)"/>
</clipPath>
</defs>
</svg>
